<svg id="visual" viewBox="0 0 1080 720" width="1080" height="720" xmlns="http://www.w3.org/2000/svg" xmlns:xlink="http://www.w3.org/1999/xlink" version="1.1"><rect x="0" y="0" width="1080" height="720" fill="#383331"></rect><path d="M0 450L36 456.5C72 463 144 476 216 478.3C288 480.7 360 472.3 432 455.7C504 439 576 414 648 417.8C720 421.7 792 454.3 864 474.7C936 495 1008 503 1044 507L1080 511L1080 721L1044 721C1008 721 936 721 864 721C792 721 720 721 648 721C576 721 504 721 432 721C360 721 288 721 216 721C144 721 72 721 36 721L0 721Z" fill="#f4daa5" stroke-linecap="round" stroke-linejoin="miter"></path></svg>